# Blender 5.1.2
# www.blender.org
mtllib Case.mtl
o Case
v 1.000000 0.838683 -0.838683
v 1.000000 -0.838683 -0.838683
v 1.000000 0.838683 0.838683
v 1.000000 -0.838683 0.838683
v -1.000000 1.000000 -1.000000
v -1.000000 -1.000000 -1.000000
v -1.000000 1.000000 1.000000
v -1.000000 -1.000000 1.000000
v 1.000000 1.000000 -1.000000
v 1.000000 -1.000000 -1.000000
v 1.000000 1.000000 1.000000
v 1.000000 -1.000000 1.000000
v -0.530002 0.838683 -0.838683
v -0.530002 -0.838683 -0.838683
v -0.530002 0.838683 0.838683
v -0.530002 -0.838683 0.838683
vn -0.0000 1.0000 -0.0000
vn -0.0000 -0.0000 1.0000
vn -1.0000 -0.0000 -0.0000
vn -0.0000 -1.0000 -0.0000
vn -0.0000 -0.0000 -1.0000
vn 1.0000 -0.0000 -0.0000
vt 0.625000 0.500000
vt 0.875000 0.500000
vt 0.875000 0.750000
vt 0.625000 0.750000
vt 0.375000 0.750000
vt 0.625000 1.000000
vt 0.375000 1.000000
vt 0.375000 0.000000
vt 0.625000 0.000000
vt 0.625000 0.250000
vt 0.375000 0.250000
vt 0.125000 0.500000
vt 0.375000 0.500000
vt 0.125000 0.750000
vt 0.604835 0.520165
vt 0.604835 0.729835
vt 0.395165 0.520165
vt 0.395165 0.729835
s 0
usemtl Material
f 9/1/1 5/2/1 7/3/1 11/4/1
f 12/5/2 11/4/2 7/6/2 8/7/2
f 8/8/3 7/9/3 5/10/3 6/11/3
f 6/12/4 10/13/4 12/5/4 8/14/4
f 1/15/4 3/16/4 15/16/4 13/15/4
f 6/11/5 5/10/5 9/1/5 10/13/5
f 1/15/6 2/17/6 10/13/6 9/1/6
f 4/18/6 3/16/6 11/4/6 12/5/6
f 3/16/6 1/15/6 9/1/6 11/4/6
f 2/17/6 4/18/6 12/5/6 10/13/6
f 14/17/6 13/15/6 15/16/6 16/18/6
f 2/17/2 1/15/2 13/15/2 14/17/2
f 4/18/1 2/17/1 14/17/1 16/18/1
f 3/16/5 4/18/5 16/18/5 15/16/5
