# Blender 5.1.2
# www.blender.org
mtllib Grinder.mtl
o Grinder
v -0.236401 0.370172 0.624473
v -0.370629 0.756961 0.758701
v -0.236401 0.370172 0.237683
v -0.370629 0.756961 0.103455
v 0.150389 0.370172 0.624473
v 0.284617 0.756961 0.758701
v 0.150389 0.370172 0.237683
v 0.284617 0.756961 0.103455
vn -0.9447 -0.3279 -0.0000
vn -0.0000 -0.3279 -0.9447
vn 0.9447 -0.3279 -0.0000
vn -0.0000 -0.3279 0.9447
vn -0.0000 -1.0000 -0.0000
vn -0.0000 1.0000 -0.0000
vt 0.375000 0.000000
vt 0.625000 0.000000
vt 0.625000 0.250000
vt 0.375000 0.250000
vt 0.625000 0.500000
vt 0.375000 0.500000
vt 0.625000 0.750000
vt 0.375000 0.750000
vt 0.625000 1.000000
vt 0.375000 1.000000
vt 0.125000 0.500000
vt 0.125000 0.750000
vt 0.875000 0.500000
vt 0.875000 0.750000
s 0
f 1/1/1 2/2/1 4/3/1 3/4/1
f 3/4/2 4/3/2 8/5/2 7/6/2
f 7/6/3 8/5/3 6/7/3 5/8/3
f 5/8/4 6/7/4 2/9/4 1/10/4
f 3/11/5 7/6/5 5/8/5 1/12/5
f 8/5/6 4/13/6 2/14/6 6/7/6
