# Blender 5.1.2
# www.blender.org
mtllib Group.mtl
o Group
v 0.003948 0.394065 0.446393
v 0.003948 0.386131 0.389481
v 0.003948 0.362635 0.334755
v 0.003948 0.273130 0.240112
v 0.003948 0.139177 0.176874
v 0.003948 0.061721 0.160273
v 0.003948 -0.099383 0.160273
v 0.003948 -0.248224 0.203832
v 0.003948 -0.362142 0.284319
v 0.003948 -0.400298 0.334755
v 0.003948 -0.423794 0.389481
v 0.003948 -0.431727 0.446393
v 0.025727 0.386131 0.393813
v 0.046670 0.362635 0.343253
v 0.065971 0.324479 0.296656
v 0.082888 0.273130 0.255814
v 0.096772 0.210562 0.222296
v 0.107088 0.139177 0.197390
v 0.113441 0.061721 0.182053
v 0.115586 -0.018831 0.176874
v 0.113441 -0.099383 0.182053
v 0.107088 -0.176840 0.197390
v 0.096772 -0.248224 0.222296
v 0.082888 -0.310793 0.255814
v 0.065971 -0.362142 0.296656
v 0.046670 -0.400298 0.343253
v 0.025727 -0.423794 0.393813
v 0.044191 0.386131 0.406150
v 0.082888 0.362635 0.367453
v 0.118551 0.324479 0.331790
v 0.149811 0.273130 0.300531
v 0.175464 0.210562 0.274877
v 0.194527 0.139177 0.255814
v 0.206265 0.061721 0.244076
v 0.210229 -0.018831 0.240112
v 0.206265 -0.099383 0.244076
v 0.194527 -0.176840 0.255814
v 0.175464 -0.248224 0.274877
v 0.149811 -0.310793 0.300531
v 0.118551 -0.362142 0.331790
v 0.082888 -0.400298 0.367453
v 0.044191 -0.423794 0.406150
v 0.056528 0.386131 0.424614
v 0.107088 0.362635 0.403671
v 0.153685 0.324479 0.384370
v 0.194527 0.273130 0.367453
v 0.228045 0.210562 0.353569
v 0.252951 0.139177 0.343253
v 0.268288 0.061721 0.336900
v 0.273467 -0.018831 0.334755
v 0.268288 -0.099383 0.336900
v 0.252951 -0.176840 0.343253
v 0.228045 -0.248224 0.353569
v 0.194527 -0.310793 0.367453
v 0.153685 -0.362142 0.384370
v 0.107088 -0.400298 0.403671
v 0.056528 -0.423794 0.424614
v 0.060861 0.386131 0.446393
v 0.115586 0.362635 0.446393
v 0.166022 0.324479 0.446393
v 0.210229 0.273130 0.446393
v 0.246509 0.210562 0.446393
v 0.273467 0.139177 0.446393
v 0.290068 0.061721 0.446393
v 0.295673 -0.018831 0.446393
v 0.290068 -0.099383 0.446393
v 0.273467 -0.176840 0.446393
v 0.246509 -0.248224 0.446393
v 0.210229 -0.310793 0.446393
v 0.166022 -0.362142 0.446393
v 0.115586 -0.400298 0.446393
v 0.060861 -0.423794 0.446393
v 0.056528 0.386131 0.468173
v 0.107088 0.362635 0.489116
v 0.153685 0.324479 0.508416
v 0.194527 0.273130 0.525334
v 0.228045 0.210562 0.539217
v 0.252951 0.139177 0.549534
v 0.268288 0.061721 0.555887
v 0.273467 -0.018831 0.558032
v 0.268288 -0.099383 0.555887
v 0.252951 -0.176840 0.549534
v 0.228045 -0.248224 0.539217
v 0.194527 -0.310793 0.525334
v 0.153685 -0.362142 0.508416
v 0.107088 -0.400298 0.489116
v 0.056528 -0.423794 0.468173
v 0.044191 0.386131 0.486637
v 0.082888 0.362635 0.525334
v 0.118551 0.324479 0.560997
v 0.149810 0.273130 0.592256
v 0.175464 0.210562 0.617910
v 0.194527 0.139177 0.636972
v 0.206265 0.061721 0.648711
v 0.210229 -0.018831 0.652674
v 0.206265 -0.099383 0.648711
v 0.194527 -0.176840 0.636972
v 0.175464 -0.248224 0.617910
v 0.149810 -0.310793 0.592256
v 0.118551 -0.362142 0.560997
v 0.082888 -0.400298 0.525334
v 0.044191 -0.423794 0.486637
v 0.025727 0.386131 0.498974
v 0.046670 0.362635 0.549534
v 0.065971 0.324479 0.596130
v 0.082888 0.273130 0.636972
v 0.096772 0.210562 0.670490
v 0.107088 0.139177 0.695397
v 0.113441 0.061721 0.710734
v 0.115586 -0.018831 0.715913
v 0.113441 -0.099383 0.710734
v 0.107088 -0.176840 0.695397
v 0.096772 -0.248224 0.670490
v 0.082888 -0.310793 0.636972
v 0.065971 -0.362142 0.596130
v 0.046670 -0.400298 0.549534
v 0.025727 -0.423794 0.498974
v 0.003948 0.386131 0.503306
v 0.003948 0.362635 0.558032
v 0.003948 0.324479 0.608467
v 0.003948 0.273130 0.652674
v 0.003948 0.210562 0.688954
v 0.003948 0.139177 0.715912
v 0.003948 0.061721 0.732513
v 0.003948 -0.018831 0.738119
v 0.003948 -0.099383 0.732513
v 0.003948 -0.176840 0.715912
v 0.003948 -0.248224 0.688954
v 0.003948 -0.310793 0.652674
v 0.003948 -0.362142 0.608467
v 0.003948 -0.400298 0.558032
v 0.003948 -0.423794 0.503306
v -0.017832 0.386131 0.498974
v -0.038774 0.362635 0.549534
v -0.058075 0.324479 0.596130
v -0.074993 0.273130 0.636972
v -0.088876 0.210562 0.670490
v -0.099193 0.139177 0.695396
v -0.105546 0.061721 0.710734
v -0.107691 -0.018831 0.715912
v -0.105546 -0.099383 0.710734
v -0.099193 -0.176840 0.695396
v -0.088876 -0.248224 0.670490
v -0.074993 -0.310793 0.636972
v -0.058075 -0.362142 0.596130
v -0.038774 -0.400298 0.549534
v -0.017832 -0.423794 0.498974
v -0.036296 0.386131 0.486637
v -0.074993 0.362635 0.525334
v -0.110656 0.324479 0.560997
v -0.141915 0.273130 0.592256
v -0.167569 0.210562 0.617910
v -0.186631 0.139177 0.636972
v -0.198370 0.061721 0.648711
v -0.202333 -0.018831 0.652674
v -0.198370 -0.099383 0.648711
v -0.186631 -0.176840 0.636972
v -0.167569 -0.248224 0.617910
v -0.141915 -0.310793 0.592256
v -0.110656 -0.362142 0.560997
v -0.074993 -0.400298 0.525334
v -0.036296 -0.423794 0.486637
v -0.048633 0.386131 0.468173
v -0.099193 0.362635 0.489115
v -0.145789 0.324479 0.508416
v -0.186631 0.273130 0.525334
v -0.220149 0.210562 0.539217
v -0.245055 0.139177 0.549534
v -0.260393 0.061721 0.555887
v -0.265571 -0.018831 0.558032
v -0.260393 -0.099383 0.555887
v -0.245055 -0.176840 0.549534
v -0.220149 -0.248224 0.539217
v -0.186631 -0.310793 0.525334
v -0.145789 -0.362142 0.508416
v -0.099193 -0.400298 0.489115
v -0.048633 -0.423794 0.468173
v -0.052965 0.386131 0.446393
v -0.107691 0.362635 0.446393
v -0.158126 0.324479 0.446393
v -0.202333 0.273130 0.446393
v -0.238613 0.210562 0.446393
v -0.265571 0.139177 0.446393
v -0.282172 0.061721 0.446393
v -0.287778 -0.018831 0.446393
v -0.282172 -0.099383 0.446393
v -0.265571 -0.176840 0.446393
v -0.238613 -0.248224 0.446393
v -0.202333 -0.310793 0.446393
v -0.158126 -0.362142 0.446393
v -0.107691 -0.400298 0.446393
v -0.052965 -0.423794 0.446393
v -0.048633 0.386131 0.424614
v -0.099193 0.362635 0.403671
v -0.145789 0.324479 0.384370
v -0.186631 0.273130 0.367453
v -0.220149 0.210562 0.353569
v -0.245055 0.139177 0.343253
v -0.260393 0.061721 0.336900
v -0.265571 -0.018831 0.334755
v -0.260393 -0.099383 0.336900
v -0.245055 -0.176840 0.343253
v -0.220149 -0.248224 0.353569
v -0.186631 -0.310793 0.367453
v -0.145789 -0.362142 0.384370
v -0.099193 -0.400298 0.403671
v -0.048633 -0.423794 0.424614
v -0.036296 0.386131 0.406150
v -0.074993 0.362635 0.367453
v -0.110656 0.324479 0.331790
v -0.141915 0.273130 0.300531
v -0.167569 0.210562 0.274877
v -0.186631 0.139177 0.255814
v -0.198370 0.061721 0.244076
v -0.202333 -0.018831 0.240112
v -0.198370 -0.099383 0.244076
v -0.186631 -0.176840 0.255814
v -0.167569 -0.248224 0.274877
v -0.141915 -0.310793 0.300531
v -0.110656 -0.362142 0.331790
v -0.074993 -0.400298 0.367453
v -0.036296 -0.423794 0.406150
v -0.017832 0.386131 0.393813
v -0.038774 0.362635 0.343253
v -0.058075 0.324479 0.296656
v -0.074992 0.273130 0.255814
v -0.088876 0.210562 0.222296
v -0.099193 0.139177 0.197390
v -0.105545 0.061721 0.182053
v -0.107691 -0.018831 0.176874
v -0.105545 -0.099383 0.182053
v -0.099193 -0.176840 0.197390
v -0.088876 -0.248224 0.222296
v -0.074992 -0.310793 0.255814
v -0.058075 -0.362142 0.296656
v -0.038774 -0.400298 0.343253
v -0.017832 -0.423794 0.393813
v 0.003948 0.324479 0.284319
v 0.003948 0.210562 0.203833
v 0.003948 -0.018831 0.154668
v 0.003948 -0.176840 0.176874
v 0.003948 -0.310793 0.240112
vn -0.0000 1.0000 -0.0000
vn -0.0000 0.9580 -0.2866
vn -0.0000 0.8556 -0.5176
vn -0.0000 0.5705 -0.8213
vn -0.0000 0.2775 -0.9607
vn -0.0000 0.1375 -0.9905
vn -0.0000 -0.1375 -0.9905
vn -0.0000 -0.4219 -0.9067
vn -0.0000 -0.7191 -0.6949
vn -0.0000 -0.8556 -0.5176
vn -0.0000 -0.9580 -0.2866
vn -0.0000 -1.0000 -0.0000
vn 0.1097 0.9580 -0.2648
vn 0.1981 0.8556 -0.4782
vn 0.2659 0.7191 -0.6420
vn 0.3143 0.5705 -0.7588
vn 0.3470 0.4219 -0.8376
vn 0.3677 0.2775 -0.8876
vn 0.3790 0.1375 -0.9151
vn 0.3827 -0.0000 -0.9239
vn 0.3790 -0.1375 -0.9151
vn 0.3677 -0.2775 -0.8876
vn 0.3470 -0.4219 -0.8376
vn 0.3143 -0.5705 -0.7588
vn 0.2659 -0.7191 -0.6420
vn 0.1981 -0.8556 -0.4782
vn 0.1097 -0.9580 -0.2648
vn 0.2027 0.9580 -0.2027
vn 0.3660 0.8556 -0.3660
vn 0.4914 0.7191 -0.4914
vn 0.5808 0.5705 -0.5808
vn 0.6411 0.4219 -0.6411
vn 0.6793 0.2775 -0.6793
vn 0.7004 0.1375 -0.7004
vn 0.7071 -0.0000 -0.7071
vn 0.7004 -0.1375 -0.7004
vn 0.6793 -0.2775 -0.6793
vn 0.6411 -0.4219 -0.6411
vn 0.5808 -0.5705 -0.5808
vn 0.4914 -0.7191 -0.4914
vn 0.3660 -0.8556 -0.3660
vn 0.2027 -0.9580 -0.2027
vn 0.2648 0.9580 -0.1097
vn 0.4782 0.8556 -0.1981
vn 0.6420 0.7191 -0.2659
vn 0.7588 0.5705 -0.3143
vn 0.8376 0.4219 -0.3470
vn 0.8876 0.2775 -0.3677
vn 0.9151 0.1375 -0.3790
vn 0.9239 -0.0000 -0.3827
vn 0.9151 -0.1375 -0.3790
vn 0.8876 -0.2775 -0.3677
vn 0.8376 -0.4219 -0.3470
vn 0.7588 -0.5705 -0.3143
vn 0.6420 -0.7191 -0.2659
vn 0.4782 -0.8556 -0.1981
vn 0.2648 -0.9580 -0.1097
vn 0.2866 0.9580 -0.0000
vn 0.5176 0.8556 -0.0000
vn 0.6949 0.7191 -0.0000
vn 0.8213 0.5705 -0.0000
vn 0.9067 0.4219 -0.0000
vn 0.9607 0.2775 -0.0000
vn 0.9905 0.1375 -0.0000
vn 1.0000 -0.0000 -0.0000
vn 0.9905 -0.1375 -0.0000
vn 0.9607 -0.2775 -0.0000
vn 0.9067 -0.4219 -0.0000
vn 0.8213 -0.5705 -0.0000
vn 0.6949 -0.7191 -0.0000
vn 0.5176 -0.8556 -0.0000
vn 0.2866 -0.9580 -0.0000
vn 0.2648 0.9580 0.1097
vn 0.4782 0.8556 0.1981
vn 0.6420 0.7191 0.2659
vn 0.7588 0.5705 0.3143
vn 0.8376 0.4219 0.3470
vn 0.8876 0.2775 0.3677
vn 0.9151 0.1375 0.3790
vn 0.9239 -0.0000 0.3827
vn 0.9151 -0.1375 0.3790
vn 0.8876 -0.2775 0.3677
vn 0.8376 -0.4219 0.3470
vn 0.7588 -0.5705 0.3143
vn 0.6420 -0.7191 0.2659
vn 0.4782 -0.8556 0.1981
vn 0.2648 -0.9580 0.1097
vn 0.2027 0.9580 0.2027
vn 0.3660 0.8556 0.3660
vn 0.4914 0.7191 0.4914
vn 0.5808 0.5705 0.5808
vn 0.6411 0.4219 0.6411
vn 0.6793 0.2775 0.6793
vn 0.7004 0.1375 0.7004
vn 0.7071 -0.0000 0.7071
vn 0.7004 -0.1375 0.7004
vn 0.6793 -0.2775 0.6793
vn 0.6411 -0.4219 0.6411
vn 0.5808 -0.5705 0.5808
vn 0.4914 -0.7191 0.4914
vn 0.3660 -0.8556 0.3660
vn 0.2027 -0.9580 0.2027
vn 0.1097 0.9580 0.2648
vn 0.1981 0.8556 0.4782
vn 0.2659 0.7191 0.6420
vn 0.3143 0.5705 0.7588
vn 0.3470 0.4219 0.8376
vn 0.3677 0.2775 0.8876
vn 0.3790 0.1375 0.9151
vn 0.3827 -0.0000 0.9239
vn 0.3790 -0.1375 0.9151
vn 0.3677 -0.2775 0.8876
vn 0.3470 -0.4219 0.8376
vn 0.3143 -0.5705 0.7588
vn 0.2659 -0.7191 0.6420
vn 0.1981 -0.8556 0.4782
vn 0.1097 -0.9580 0.2648
vn -0.0000 0.9580 0.2866
vn -0.0000 0.8556 0.5176
vn -0.0000 0.7191 0.6949
vn -0.0000 0.5705 0.8213
vn -0.0000 0.4219 0.9067
vn -0.0000 0.2775 0.9607
vn -0.0000 0.1375 0.9905
vn -0.0000 -0.0000 1.0000
vn -0.0000 -0.1375 0.9905
vn -0.0000 -0.2775 0.9607
vn -0.0000 -0.4219 0.9067
vn -0.0000 -0.5705 0.8213
vn -0.0000 -0.7191 0.6949
vn -0.0000 -0.8556 0.5176
vn -0.0000 -0.9580 0.2866
vn -0.1097 0.9580 0.2648
vn -0.1981 0.8556 0.4782
vn -0.2659 0.7191 0.6420
vn -0.3143 0.5705 0.7588
vn -0.3470 0.4219 0.8376
vn -0.3677 0.2775 0.8876
vn -0.3790 0.1375 0.9151
vn -0.3827 -0.0000 0.9239
vn -0.3790 -0.1375 0.9151
vn -0.3677 -0.2775 0.8876
vn -0.3470 -0.4219 0.8376
vn -0.3143 -0.5705 0.7588
vn -0.2659 -0.7191 0.6420
vn -0.1981 -0.8556 0.4782
vn -0.1097 -0.9580 0.2648
vn -0.2027 0.9580 0.2027
vn -0.3660 0.8556 0.3660
vn -0.4914 0.7191 0.4914
vn -0.5808 0.5705 0.5808
vn -0.6411 0.4219 0.6411
vn -0.6793 0.2775 0.6793
vn -0.7004 0.1375 0.7004
vn -0.7071 -0.0000 0.7071
vn -0.7004 -0.1375 0.7004
vn -0.6793 -0.2775 0.6793
vn -0.6411 -0.4219 0.6411
vn -0.5808 -0.5705 0.5808
vn -0.4914 -0.7191 0.4914
vn -0.3660 -0.8556 0.3660
vn -0.2027 -0.9580 0.2027
vn -0.2648 0.9580 0.1097
vn -0.4782 0.8556 0.1981
vn -0.6420 0.7191 0.2659
vn -0.7588 0.5705 0.3143
vn -0.8376 0.4219 0.3470
vn -0.8876 0.2775 0.3677
vn -0.9151 0.1375 0.3790
vn -0.9239 -0.0000 0.3827
vn -0.9151 -0.1375 0.3790
vn -0.8876 -0.2775 0.3677
vn -0.8376 -0.4219 0.3470
vn -0.7588 -0.5705 0.3143
vn -0.6420 -0.7191 0.2659
vn -0.4782 -0.8556 0.1981
vn -0.2648 -0.9580 0.1097
vn -0.2866 0.9580 -0.0000
vn -0.5176 0.8556 -0.0000
vn -0.6949 0.7191 -0.0000
vn -0.8213 0.5705 -0.0000
vn -0.9067 0.4219 -0.0000
vn -0.9607 0.2775 -0.0000
vn -0.9905 0.1375 -0.0000
vn -1.0000 -0.0000 -0.0000
vn -0.9905 -0.1375 -0.0000
vn -0.9607 -0.2775 -0.0000
vn -0.9067 -0.4219 -0.0000
vn -0.8213 -0.5705 -0.0000
vn -0.6949 -0.7191 -0.0000
vn -0.5176 -0.8556 -0.0000
vn -0.2866 -0.9580 -0.0000
vn -0.2648 0.9580 -0.1097
vn -0.4782 0.8556 -0.1981
vn -0.6420 0.7191 -0.2659
vn -0.7588 0.5705 -0.3143
vn -0.8376 0.4219 -0.3470
vn -0.8876 0.2775 -0.3677
vn -0.9151 0.1375 -0.3790
vn -0.9239 -0.0000 -0.3827
vn -0.9151 -0.1375 -0.3790
vn -0.8876 -0.2775 -0.3677
vn -0.8376 -0.4219 -0.3470
vn -0.7588 -0.5705 -0.3143
vn -0.6420 -0.7191 -0.2659
vn -0.4782 -0.8556 -0.1981
vn -0.2648 -0.9580 -0.1097
vn -0.2027 0.9580 -0.2027
vn -0.3660 0.8556 -0.3660
vn -0.4914 0.7191 -0.4914
vn -0.5808 0.5705 -0.5808
vn -0.6411 0.4219 -0.6411
vn -0.6793 0.2775 -0.6793
vn -0.7004 0.1375 -0.7004
vn -0.7071 -0.0000 -0.7071
vn -0.7004 -0.1375 -0.7004
vn -0.6793 -0.2775 -0.6793
vn -0.6411 -0.4219 -0.6411
vn -0.5808 -0.5705 -0.5808
vn -0.4914 -0.7191 -0.4914
vn -0.3660 -0.8556 -0.3660
vn -0.2027 -0.9580 -0.2027
vn -0.1097 0.9580 -0.2648
vn -0.1981 0.8556 -0.4782
vn -0.2659 0.7191 -0.6420
vn -0.3143 0.5705 -0.7588
vn -0.3470 0.4219 -0.8376
vn -0.3677 0.2775 -0.8876
vn -0.3790 0.1375 -0.9151
vn -0.3827 -0.0000 -0.9239
vn -0.3790 -0.1375 -0.9151
vn -0.3677 -0.2775 -0.8876
vn -0.3470 -0.4219 -0.8376
vn -0.3143 -0.5705 -0.7588
vn -0.2659 -0.7191 -0.6420
vn -0.1981 -0.8556 -0.4782
vn -0.1097 -0.9580 -0.2648
vn -0.0000 0.7191 -0.6949
vn -0.0000 0.4219 -0.9067
vn -0.0000 -0.0000 -1.0000
vn -0.0000 -0.2775 -0.9607
vn -0.0000 -0.5705 -0.8213
vt 0.750000 0.937500
vt 0.718750 1.000000
vt 0.687500 0.937500
vt 0.718750 0.000000
vt 0.750000 0.062500
vt 0.687500 0.062500
vt 0.750000 0.437500
vt 0.750000 0.500000
vt 0.687500 0.500000
vt 0.687500 0.437500
vt 0.750000 0.875000
vt 0.687500 0.875000
vt 0.750000 0.375000
vt 0.687500 0.375000
vt 0.750000 0.812500
vt 0.687500 0.812500
vt 0.750000 0.312500
vt 0.687500 0.312500
vt 0.750000 0.750000
vt 0.687500 0.750000
vt 0.750000 0.250000
vt 0.687500 0.250000
vt 0.750000 0.687500
vt 0.687500 0.687500
vt 0.750000 0.187500
vt 0.687500 0.187500
vt 0.750000 0.625000
vt 0.687500 0.625000
vt 0.750000 0.125000
vt 0.687500 0.125000
vt 0.750000 0.562500
vt 0.687500 0.562500
vt 0.625000 0.125000
vt 0.625000 0.062500
vt 0.625000 0.562500
vt 0.625000 0.500000
vt 0.656250 1.000000
vt 0.625000 0.937500
vt 0.656250 0.000000
vt 0.625000 0.437500
vt 0.625000 0.875000
vt 0.625000 0.375000
vt 0.625000 0.812500
vt 0.625000 0.312500
vt 0.625000 0.750000
vt 0.625000 0.250000
vt 0.625000 0.687500
vt 0.625000 0.187500
vt 0.625000 0.625000
vt 0.562500 0.812500
vt 0.562500 0.750000
vt 0.562500 0.312500
vt 0.562500 0.250000
vt 0.562500 0.687500
vt 0.562500 0.187500
vt 0.562500 0.625000
vt 0.562500 0.125000
vt 0.562500 0.562500
vt 0.562500 0.062500
vt 0.562500 0.500000
vt 0.593750 1.000000
vt 0.562500 0.937500
vt 0.593750 0.000000
vt 0.562500 0.437500
vt 0.562500 0.875000
vt 0.562500 0.375000
vt 0.500000 0.562500
vt 0.500000 0.500000
vt 0.531250 1.000000
vt 0.500000 0.937500
vt 0.531250 0.000000
vt 0.500000 0.062500
vt 0.500000 0.437500
vt 0.500000 0.875000
vt 0.500000 0.375000
vt 0.500000 0.812500
vt 0.500000 0.312500
vt 0.500000 0.750000
vt 0.500000 0.250000
vt 0.500000 0.687500
vt 0.500000 0.187500
vt 0.500000 0.625000
vt 0.500000 0.125000
vt 0.437500 0.312500
vt 0.437500 0.250000
vt 0.437500 0.750000
vt 0.437500 0.687500
vt 0.437500 0.187500
vt 0.437500 0.625000
vt 0.437500 0.125000
vt 0.437500 0.562500
vt 0.437500 0.062500
vt 0.437500 0.500000
vt 0.468750 1.000000
vt 0.437500 0.937500
vt 0.468750 0.000000
vt 0.437500 0.437500
vt 0.437500 0.875000
vt 0.437500 0.375000
vt 0.437500 0.812500
vt 0.406250 1.000000
vt 0.375000 0.937500
vt 0.406250 0.000000
vt 0.375000 0.062500
vt 0.375000 0.500000
vt 0.375000 0.437500
vt 0.375000 0.875000
vt 0.375000 0.375000
vt 0.375000 0.812500
vt 0.375000 0.312500
vt 0.375000 0.750000
vt 0.375000 0.250000
vt 0.375000 0.687500
vt 0.375000 0.187500
vt 0.375000 0.625000
vt 0.375000 0.125000
vt 0.375000 0.562500
vt 0.312500 0.750000
vt 0.312500 0.687500
vt 0.312500 0.250000
vt 0.312500 0.187500
vt 0.312500 0.625000
vt 0.312500 0.125000
vt 0.312500 0.562500
vt 0.312500 0.062500
vt 0.312500 0.500000
vt 0.343750 1.000000
vt 0.312500 0.937500
vt 0.343750 0.000000
vt 0.312500 0.437500
vt 0.312500 0.875000
vt 0.312500 0.375000
vt 0.312500 0.812500
vt 0.312500 0.312500
vt 0.250000 0.500000
vt 0.250000 0.437500
vt 0.250000 0.937500
vt 0.250000 0.875000
vt 0.250000 0.375000
vt 0.250000 0.812500
vt 0.250000 0.312500
vt 0.250000 0.750000
vt 0.250000 0.250000
vt 0.250000 0.687500
vt 0.250000 0.187500
vt 0.250000 0.625000
vt 0.250000 0.125000
vt 0.250000 0.562500
vt 0.250000 0.062500
vt 0.281250 1.000000
vt 0.281250 0.000000
vt 0.187500 0.250000
vt 0.187500 0.187500
vt 0.187500 0.687500
vt 0.187500 0.625000
vt 0.187500 0.125000
vt 0.187500 0.562500
vt 0.187500 0.062500
vt 0.187500 0.500000
vt 0.218750 1.000000
vt 0.187500 0.937500
vt 0.218750 0.000000
vt 0.187500 0.437500
vt 0.187500 0.875000
vt 0.187500 0.375000
vt 0.187500 0.812500
vt 0.187500 0.312500
vt 0.187500 0.750000
vt 0.125000 0.437500
vt 0.125000 0.375000
vt 0.125000 0.875000
vt 0.125000 0.812500
vt 0.125000 0.312500
vt 0.125000 0.750000
vt 0.125000 0.250000
vt 0.125000 0.687500
vt 0.125000 0.187500
vt 0.125000 0.625000
vt 0.125000 0.125000
vt 0.125000 0.562500
vt 0.125000 0.062500
vt 0.125000 0.500000
vt 0.156250 1.000000
vt 0.125000 0.937500
vt 0.156250 0.000000
vt 0.062500 0.187500
vt 0.062500 0.125000
vt 0.062500 0.625000
vt 0.062500 0.562500
vt 0.062500 0.062500
vt 0.062500 0.500000
vt 0.093750 1.000000
vt 0.062500 0.937500
vt 0.093750 0.000000
vt 0.062500 0.437500
vt 0.062500 0.875000
vt 0.062500 0.375000
vt 0.062500 0.812500
vt 0.062500 0.312500
vt 0.062500 0.750000
vt 0.062500 0.250000
vt 0.062500 0.687500
vt 0.000000 0.875000
vt 0.000000 0.812500
vt 0.000000 0.375000
vt 0.000000 0.312500
vt 0.000000 0.750000
vt 0.000000 0.250000
vt 0.000000 0.687500
vt 0.000000 0.187500
vt 0.000000 0.625000
vt 0.000000 0.125000
vt 0.000000 0.562500
vt 0.000000 0.062500
vt 0.000000 0.500000
vt 0.031250 1.000000
vt 0.000000 0.937500
vt 0.031250 0.000000
vt 0.000000 0.437500
vt 1.000000 0.562500
vt 1.000000 0.625000
vt 0.937500 0.625000
vt 0.937500 0.562500
vt 1.000000 0.062500
vt 1.000000 0.125000
vt 0.937500 0.125000
vt 0.937500 0.062500
vt 1.000000 0.500000
vt 0.937500 0.500000
vt 1.000000 0.937500
vt 0.968750 1.000000
vt 0.937500 0.937500
vt 0.968750 0.000000
vt 1.000000 0.437500
vt 0.937500 0.437500
vt 1.000000 0.875000
vt 0.937500 0.875000
vt 1.000000 0.375000
vt 0.937500 0.375000
vt 1.000000 0.812500
vt 0.937500 0.812500
vt 1.000000 0.312500
vt 0.937500 0.312500
vt 1.000000 0.750000
vt 0.937500 0.750000
vt 1.000000 0.250000
vt 0.937500 0.250000
vt 1.000000 0.687500
vt 0.937500 0.687500
vt 1.000000 0.187500
vt 0.937500 0.187500
vt 0.875000 0.375000
vt 0.875000 0.312500
vt 0.875000 0.812500
vt 0.875000 0.750000
vt 0.875000 0.250000
vt 0.875000 0.687500
vt 0.875000 0.187500
vt 0.875000 0.625000
vt 0.875000 0.125000
vt 0.875000 0.562500
vt 0.875000 0.062500
vt 0.875000 0.500000
vt 0.906250 1.000000
vt 0.875000 0.937500
vt 0.906250 0.000000
vt 0.875000 0.437500
vt 0.875000 0.875000
vt 0.812500 0.125000
vt 0.812500 0.062500
vt 0.812500 0.562500
vt 0.812500 0.500000
vt 0.843750 1.000000
vt 0.812500 0.937500
vt 0.843750 0.000000
vt 0.812500 0.437500
vt 0.812500 0.875000
vt 0.812500 0.375000
vt 0.812500 0.812500
vt 0.812500 0.312500
vt 0.812500 0.750000
vt 0.812500 0.250000
vt 0.812500 0.687500
vt 0.812500 0.187500
vt 0.812500 0.625000
vt 0.781250 1.000000
vt 0.781250 0.000000
s 1
f 2/1/2 1/2/1 13/3/13
f 12/4/12 11/5/11 27/6/27
f 7/7/7 240/8/240 20/9/20 21/10/21
f 3/11/3 2/1/2 13/3/13 14/12/14
f 241/13/241 7/7/7 21/10/21 22/14/22
f 238/15/238 3/11/3 14/12/14 15/16/15
f 8/17/8 241/13/241 22/14/22 23/18/23
f 4/19/4 238/15/238 15/16/15 16/20/16
f 242/21/242 8/17/8 23/18/23 24/22/24
f 239/23/239 4/19/4 16/20/16 17/24/17
f 9/25/9 242/21/242 24/22/24 25/26/25
f 5/27/5 239/23/239 17/24/17 18/28/18
f 10/29/10 9/25/9 25/26/25 26/30/26
f 6/31/6 5/27/5 18/28/18 19/32/19
f 11/5/11 10/29/10 26/30/26 27/6/27
f 240/8/240 6/31/6 19/32/19 20/9/20
f 27/6/27 26/30/26 41/33/41 42/34/42
f 20/9/20 19/32/19 34/35/34 35/36/35
f 13/3/13 1/37/1 28/38/28
f 12/39/12 27/6/27 42/34/42
f 21/10/21 20/9/20 35/36/35 36/40/36
f 14/12/14 13/3/13 28/38/28 29/41/29
f 22/14/22 21/10/21 36/40/36 37/42/37
f 15/16/15 14/12/14 29/41/29 30/43/30
f 23/18/23 22/14/22 37/42/37 38/44/38
f 16/20/16 15/16/15 30/43/30 31/45/31
f 24/22/24 23/18/23 38/44/38 39/46/39
f 17/24/17 16/20/16 31/45/31 32/47/32
f 25/26/25 24/22/24 39/46/39 40/48/40
f 18/28/18 17/24/17 32/47/32 33/49/33
f 26/30/26 25/26/25 40/48/40 41/33/41
f 19/32/19 18/28/18 33/49/33 34/35/34
f 31/45/31 30/43/30 45/50/45 46/51/46
f 39/46/39 38/44/38 53/52/53 54/53/54
f 32/47/32 31/45/31 46/51/46 47/54/47
f 40/48/40 39/46/39 54/53/54 55/55/55
f 33/49/33 32/47/32 47/54/47 48/56/48
f 41/33/41 40/48/40 55/55/55 56/57/56
f 34/35/34 33/49/33 48/56/48 49/58/49
f 42/34/42 41/33/41 56/57/56 57/59/57
f 35/36/35 34/35/34 49/58/49 50/60/50
f 28/38/28 1/61/1 43/62/43
f 12/63/12 42/34/42 57/59/57
f 36/40/36 35/36/35 50/60/50 51/64/51
f 29/41/29 28/38/28 43/62/43 44/65/44
f 37/42/37 36/40/36 51/64/51 52/66/52
f 30/43/30 29/41/29 44/65/44 45/50/45
f 38/44/38 37/42/37 52/66/52 53/52/53
f 50/60/50 49/58/49 64/67/64 65/68/65
f 43/62/43 1/69/1 58/70/58
f 12/71/12 57/59/57 72/72/72
f 51/64/51 50/60/50 65/68/65 66/73/66
f 44/65/44 43/62/43 58/70/58 59/74/59
f 52/66/52 51/64/51 66/73/66 67/75/67
f 45/50/45 44/65/44 59/74/59 60/76/60
f 53/52/53 52/66/52 67/75/67 68/77/68
f 46/51/46 45/50/45 60/76/60 61/78/61
f 54/53/54 53/52/53 68/77/68 69/79/69
f 47/54/47 46/51/46 61/78/61 62/80/62
f 55/55/55 54/53/54 69/79/69 70/81/70
f 48/56/48 47/54/47 62/80/62 63/82/63
f 56/57/56 55/55/55 70/81/70 71/83/71
f 49/58/49 48/56/48 63/82/63 64/67/64
f 57/59/57 56/57/56 71/83/71 72/72/72
f 69/79/69 68/77/68 83/84/83 84/85/84
f 62/80/62 61/78/61 76/86/76 77/87/77
f 70/81/70 69/79/69 84/85/84 85/88/85
f 63/82/63 62/80/62 77/87/77 78/89/78
f 71/83/71 70/81/70 85/88/85 86/90/86
f 64/67/64 63/82/63 78/89/78 79/91/79
f 72/72/72 71/83/71 86/90/86 87/92/87
f 65/68/65 64/67/64 79/91/79 80/93/80
f 58/70/58 1/94/1 73/95/73
f 12/96/12 72/72/72 87/92/87
f 66/73/66 65/68/65 80/93/80 81/97/81
f 59/74/59 58/70/58 73/95/73 74/98/74
f 67/75/67 66/73/66 81/97/81 82/99/82
f 60/76/60 59/74/59 74/98/74 75/100/75
f 68/77/68 67/75/67 82/99/82 83/84/83
f 61/78/61 60/76/60 75/100/75 76/86/76
f 73/95/73 1/101/1 88/102/88
f 12/103/12 87/92/87 102/104/102
f 81/97/81 80/93/80 95/105/95 96/106/96
f 74/98/74 73/95/73 88/102/88 89/107/89
f 82/99/82 81/97/81 96/106/96 97/108/97
f 75/100/75 74/98/74 89/107/89 90/109/90
f 83/84/83 82/99/82 97/108/97 98/110/98
f 76/86/76 75/100/75 90/109/90 91/111/91
f 84/85/84 83/84/83 98/110/98 99/112/99
f 77/87/77 76/86/76 91/111/91 92/113/92
f 85/88/85 84/85/84 99/112/99 100/114/100
f 78/89/78 77/87/77 92/113/92 93/115/93
f 86/90/86 85/88/85 100/114/100 101/116/101
f 79/91/79 78/89/78 93/115/93 94/117/94
f 87/92/87 86/90/86 101/116/101 102/104/102
f 80/93/80 79/91/79 94/117/94 95/105/95
f 92/113/92 91/111/91 106/118/106 107/119/107
f 100/114/100 99/112/99 114/120/114 115/121/115
f 93/115/93 92/113/92 107/119/107 108/122/108
f 101/116/101 100/114/100 115/121/115 116/123/116
f 94/117/94 93/115/93 108/122/108 109/124/109
f 102/104/102 101/116/101 116/123/116 117/125/117
f 95/105/95 94/117/94 109/124/109 110/126/110
f 88/102/88 1/127/1 103/128/103
f 12/129/12 102/104/102 117/125/117
f 96/106/96 95/105/95 110/126/110 111/130/111
f 89/107/89 88/102/88 103/128/103 104/131/104
f 97/108/97 96/106/96 111/130/111 112/132/112
f 90/109/90 89/107/89 104/131/104 105/133/105
f 98/110/98 97/108/97 112/132/112 113/134/113
f 91/111/91 90/109/90 105/133/105 106/118/106
f 99/112/99 98/110/98 113/134/113 114/120/114
f 111/130/111 110/126/110 125/135/125 126/136/126
f 104/131/104 103/128/103 118/137/118 119/138/119
f 112/132/112 111/130/111 126/136/126 127/139/127
f 105/133/105 104/131/104 119/138/119 120/140/120
f 113/134/113 112/132/112 127/139/127 128/141/128
f 106/118/106 105/133/105 120/140/120 121/142/121
f 114/120/114 113/134/113 128/141/128 129/143/129
f 107/119/107 106/118/106 121/142/121 122/144/122
f 115/121/115 114/120/114 129/143/129 130/145/130
f 108/122/108 107/119/107 122/144/122 123/146/123
f 116/123/116 115/121/115 130/145/130 131/147/131
f 109/124/109 108/122/108 123/146/123 124/148/124
f 117/125/117 116/123/116 131/147/131 132/149/132
f 110/126/110 109/124/109 124/148/124 125/135/125
f 103/128/103 1/150/1 118/137/118
f 12/151/12 117/125/117 132/149/132
f 130/145/130 129/143/129 144/152/144 145/153/145
f 123/146/123 122/144/122 137/154/137 138/155/138
f 131/147/131 130/145/130 145/153/145 146/156/146
f 124/148/124 123/146/123 138/155/138 139/157/139
f 132/149/132 131/147/131 146/156/146 147/158/147
f 125/135/125 124/148/124 139/157/139 140/159/140
f 118/137/118 1/160/1 133/161/133
f 12/162/12 132/149/132 147/158/147
f 126/136/126 125/135/125 140/159/140 141/163/141
f 119/138/119 118/137/118 133/161/133 134/164/134
f 127/139/127 126/136/126 141/163/141 142/165/142
f 120/140/120 119/138/119 134/164/134 135/166/135
f 128/141/128 127/139/127 142/165/142 143/167/143
f 121/142/121 120/140/120 135/166/135 136/168/136
f 129/143/129 128/141/128 143/167/143 144/152/144
f 122/144/122 121/142/121 136/168/136 137/154/137
f 142/165/142 141/163/141 156/169/156 157/170/157
f 135/166/135 134/164/134 149/171/149 150/172/150
f 143/167/143 142/165/142 157/170/157 158/173/158
f 136/168/136 135/166/135 150/172/150 151/174/151
f 144/152/144 143/167/143 158/173/158 159/175/159
f 137/154/137 136/168/136 151/174/151 152/176/152
f 145/153/145 144/152/144 159/175/159 160/177/160
f 138/155/138 137/154/137 152/176/152 153/178/153
f 146/156/146 145/153/145 160/177/160 161/179/161
f 139/157/139 138/155/138 153/178/153 154/180/154
f 147/158/147 146/156/146 161/179/161 162/181/162
f 140/159/140 139/157/139 154/180/154 155/182/155
f 133/161/133 1/183/1 148/184/148
f 12/185/12 147/158/147 162/181/162
f 141/163/141 140/159/140 155/182/155 156/169/156
f 134/164/134 133/161/133 148/184/148 149/171/149
f 161/179/161 160/177/160 175/186/175 176/187/176
f 154/180/154 153/178/153 168/188/168 169/189/169
f 162/181/162 161/179/161 176/187/176 177/190/177
f 155/182/155 154/180/154 169/189/169 170/191/170
f 148/184/148 1/192/1 163/193/163
f 12/194/12 162/181/162 177/190/177
f 156/169/156 155/182/155 170/191/170 171/195/171
f 149/171/149 148/184/148 163/193/163 164/196/164
f 157/170/157 156/169/156 171/195/171 172/197/172
f 150/172/150 149/171/149 164/196/164 165/198/165
f 158/173/158 157/170/157 172/197/172 173/199/173
f 151/174/151 150/172/150 165/198/165 166/200/166
f 159/175/159 158/173/158 173/199/173 174/201/174
f 152/176/152 151/174/151 166/200/166 167/202/167
f 160/177/160 159/175/159 174/201/174 175/186/175
f 153/178/153 152/176/152 167/202/167 168/188/168
f 165/198/165 164/196/164 179/203/179 180/204/180
f 173/199/173 172/197/172 187/205/187 188/206/188
f 166/200/166 165/198/165 180/204/180 181/207/181
f 174/201/174 173/199/173 188/206/188 189/208/189
f 167/202/167 166/200/166 181/207/181 182/209/182
f 175/186/175 174/201/174 189/208/189 190/210/190
f 168/188/168 167/202/167 182/209/182 183/211/183
f 176/187/176 175/186/175 190/210/190 191/212/191
f 169/189/169 168/188/168 183/211/183 184/213/184
f 177/190/177 176/187/176 191/212/191 192/214/192
f 170/191/170 169/189/169 184/213/184 185/215/185
f 163/193/163 1/216/1 178/217/178
f 12/218/12 177/190/177 192/214/192
f 171/195/171 170/191/170 185/215/185 186/219/186
f 164/196/164 163/193/163 178/217/178 179/203/179
f 172/197/172 171/195/171 186/219/186 187/205/187
f 184/220/184 183/221/183 198/222/198 199/223/199
f 192/224/192 191/225/191 206/226/206 207/227/207
f 185/228/185 184/220/184 199/223/199 200/229/200
f 178/230/178 1/231/1 193/232/193
f 12/233/12 192/224/192 207/227/207
f 186/234/186 185/228/185 200/229/200 201/235/201
f 179/236/179 178/230/178 193/232/193 194/237/194
f 187/238/187 186/234/186 201/235/201 202/239/202
f 180/240/180 179/236/179 194/237/194 195/241/195
f 188/242/188 187/238/187 202/239/202 203/243/203
f 181/244/181 180/240/180 195/241/195 196/245/196
f 189/246/189 188/242/188 203/243/203 204/247/204
f 182/248/182 181/244/181 196/245/196 197/249/197
f 190/250/190 189/246/189 204/247/204 205/251/205
f 183/221/183 182/248/182 197/249/197 198/222/198
f 191/225/191 190/250/190 205/251/205 206/226/206
f 203/243/203 202/239/202 217/252/217 218/253/218
f 196/245/196 195/241/195 210/254/210 211/255/211
f 204/247/204 203/243/203 218/253/218 219/256/219
f 197/249/197 196/245/196 211/255/211 212/257/212
f 205/251/205 204/247/204 219/256/219 220/258/220
f 198/222/198 197/249/197 212/257/212 213/259/213
f 206/226/206 205/251/205 220/258/220 221/260/221
f 199/223/199 198/222/198 213/259/213 214/261/214
f 207/227/207 206/226/206 221/260/221 222/262/222
f 200/229/200 199/223/199 214/261/214 215/263/215
f 193/232/193 1/264/1 208/265/208
f 12/266/12 207/227/207 222/262/222
f 201/235/201 200/229/200 215/263/215 216/267/216
f 194/237/194 193/232/193 208/265/208 209/268/209
f 202/239/202 201/235/201 216/267/216 217/252/217
f 195/241/195 194/237/194 209/268/209 210/254/210
f 222/262/222 221/260/221 236/269/236 237/270/237
f 215/263/215 214/261/214 229/271/229 230/272/230
f 208/265/208 1/273/1 223/274/223
f 12/275/12 222/262/222 237/270/237
f 216/267/216 215/263/215 230/272/230 231/276/231
f 209/268/209 208/265/208 223/274/223 224/277/224
f 217/252/217 216/267/216 231/276/231 232/278/232
f 210/254/210 209/268/209 224/277/224 225/279/225
f 218/253/218 217/252/217 232/278/232 233/280/233
f 211/255/211 210/254/210 225/279/225 226/281/226
f 219/256/219 218/253/218 233/280/233 234/282/234
f 212/257/212 211/255/211 226/281/226 227/283/227
f 220/258/220 219/256/219 234/282/234 235/284/235
f 213/259/213 212/257/212 227/283/227 228/285/228
f 221/260/221 220/258/220 235/284/235 236/269/236
f 214/261/214 213/259/213 228/285/228 229/271/229
f 226/281/226 225/279/225 238/15/238 4/19/4
f 234/282/234 233/280/233 8/17/8 242/21/242
f 227/283/227 226/281/226 4/19/4 239/23/239
f 235/284/235 234/282/234 242/21/242 9/25/9
f 228/285/228 227/283/227 239/23/239 5/27/5
f 236/269/236 235/284/235 9/25/9 10/29/10
f 229/271/229 228/285/228 5/27/5 6/31/6
f 237/270/237 236/269/236 10/29/10 11/5/11
f 230/272/230 229/271/229 6/31/6 240/8/240
f 223/274/223 1/286/1 2/1/2
f 12/287/12 237/270/237 11/5/11
f 231/276/231 230/272/230 240/8/240 7/7/7
f 224/277/224 223/274/223 2/1/2 3/11/3
f 232/278/232 231/276/231 7/7/7 241/13/241
f 225/279/225 224/277/224 3/11/3 238/15/238
f 233/280/233 232/278/232 241/13/241 8/17/8
