# Blender 5.1.2
# www.blender.org
mtllib WaterTube.mtl
o WaterTube
v 0.196118 -0.011502 0.284810
v 0.432711 -0.008768 0.284842
v 0.196118 -0.034580 0.287083
v 0.432711 -0.031893 0.286581
v 0.196118 -0.056772 0.293815
v 0.432711 -0.054234 0.292798
v 0.196119 -0.077224 0.304747
v 0.432711 -0.074933 0.303254
v 0.196119 -0.095150 0.319458
v 0.432711 -0.093194 0.317547
v 0.196119 -0.109861 0.337384
v 0.432711 -0.108316 0.335129
v 0.196119 -0.120793 0.357836
v 0.432711 -0.119718 0.355323
v 0.196119 -0.127525 0.380028
v 0.432711 -0.126961 0.377353
v 0.196119 -0.129798 0.403106
v 0.432711 -0.129766 0.400372
v 0.196119 -0.127525 0.426185
v 0.432711 -0.128027 0.423497
v 0.196119 -0.120793 0.448376
v 0.432711 -0.121810 0.445838
v 0.196119 -0.109861 0.468828
v 0.432711 -0.111354 0.466537
v 0.196119 -0.095150 0.486754
v 0.432711 -0.097061 0.484799
v 0.196119 -0.077224 0.501466
v 0.432711 -0.079479 0.499921
v 0.196118 -0.056772 0.512398
v 0.432711 -0.059286 0.511322
v 0.196118 -0.034580 0.519129
v 0.432711 -0.037255 0.518565
v 0.196118 -0.011502 0.521402
v 0.432711 -0.014236 0.521371
v 0.196118 0.011577 0.519129
v 0.432711 0.008889 0.519632
v 0.196118 0.033768 0.512398
v 0.432711 0.031230 0.513415
v 0.196118 0.054220 0.501466
v 0.432711 0.051929 0.502959
v 0.196118 0.072146 0.486754
v 0.432711 0.070191 0.488665
v 0.196118 0.086858 0.468828
v 0.432711 0.085313 0.471084
v 0.196118 0.097790 0.448376
v 0.432711 0.096714 0.450890
v 0.196118 0.104521 0.426185
v 0.432711 0.103957 0.428860
v 0.196118 0.106794 0.403106
v 0.432711 0.106763 0.405840
v 0.196118 0.104521 0.380028
v 0.432711 0.105024 0.382715
v 0.196118 0.097790 0.357836
v 0.432711 0.098807 0.360374
v 0.196118 0.086858 0.337384
v 0.432711 0.088350 0.339675
v 0.196118 0.072146 0.319458
v 0.432711 0.074057 0.321414
v 0.196118 0.054220 0.304747
v 0.432711 0.056476 0.306292
v 0.196118 0.033768 0.293815
v 0.432711 0.036282 0.294890
v 0.196118 0.011577 0.287083
v 0.432711 0.014252 0.287648
v 0.709769 -0.013254 -0.048966
v 0.714891 0.009331 -0.050170
v 0.704798 -0.035177 -0.043267
v 0.700168 -0.055593 -0.033292
v 0.696058 -0.073720 -0.019424
v 0.692624 -0.088860 -0.002197
v 0.690000 -0.100431 0.017728
v 0.688286 -0.107989 0.039585
v 0.687548 -0.111244 0.062534
v 0.687815 -0.110069 0.085692
v 0.689075 -0.104511 0.108171
v 0.691281 -0.094783 0.129106
v 0.694348 -0.081259 0.147693
v 0.698158 -0.064459 0.163218
v 0.702564 -0.045027 0.175083
v 0.707398 -0.023712 0.182833
v 0.712473 -0.001331 0.186170
v 0.717595 0.021254 0.184966
v 0.722566 0.043177 0.179267
v 0.727196 0.063593 0.169292
v 0.731306 0.081720 0.155424
v 0.734740 0.096860 0.138197
v 0.737364 0.108431 0.118272
v 0.739078 0.115989 0.096415
v 0.739816 0.119244 0.073467
v 0.739549 0.118069 0.050308
v 0.738289 0.112512 0.027829
v 0.736083 0.102784 0.006894
v 0.733016 0.089259 -0.011693
v 0.729206 0.072459 -0.027218
v 0.724800 0.053027 -0.039083
v 0.719966 0.031712 -0.046833
v 0.970975 -0.167688 -0.091471
v 0.984382 -0.149722 -0.097409
v 0.957915 -0.183950 -0.081333
v 0.945705 -0.197882 -0.067384
v 0.934812 -0.208949 -0.050161
v 0.925655 -0.216727 -0.030325
v 0.918587 -0.220915 -0.008639
v 0.913880 -0.221353 0.014064
v 0.911713 -0.218024 0.036911
v 0.912170 -0.211057 0.059025
v 0.915234 -0.200718 0.079556
v 0.920787 -0.187406 0.097714
v 0.928616 -0.171631 0.112802
v 0.938419 -0.154000 0.124240
v 0.949820 -0.135190 0.131588
v 0.962381 -0.115925 0.134565
v 0.975619 -0.096945 0.133055
v 0.989026 -0.078979 0.127117
v 1.002086 -0.062717 0.116979
v 1.014297 -0.048785 0.103030
v 1.025190 -0.037717 0.085807
v 1.034346 -0.029940 0.065972
v 1.041414 -0.025752 0.044286
v 1.046122 -0.025314 0.021583
v 1.048288 -0.028642 -0.001265
v 1.047831 -0.035610 -0.023379
v 1.044767 -0.045949 -0.043909
v 1.039214 -0.059261 -0.062068
v 1.031385 -0.075036 -0.077156
v 1.021582 -0.092667 -0.088594
v 1.010181 -0.111476 -0.095942
v 0.997620 -0.130741 -0.098919
vn -0.6857 0.0079 -0.7278
vn -0.4321 0.0671 -0.8993
vn -0.6857 -0.1343 -0.7154
vn -0.4370 -0.1139 -0.8922
vn -0.6857 -0.2712 -0.6755
vn -0.4305 -0.2944 -0.8533
vn -0.6857 -0.3978 -0.6096
vn -0.4093 -0.4699 -0.7821
vn -0.6857 -0.5091 -0.5202
vn -0.3683 -0.6354 -0.6787
vn -0.6857 -0.6008 -0.4109
vn -0.3009 -0.7837 -0.5433
vn -0.6857 -0.6694 -0.2858
vn -0.2025 -0.9034 -0.3779
vn -0.6857 -0.7123 -0.1497
vn -0.0786 -0.9786 -0.1902
vn -0.6857 -0.7278 -0.0079
vn 0.0499 -0.9987 0.0046
vn -0.6857 -0.7154 0.1343
vn 0.1604 -0.9685 0.1906
vn -0.6857 -0.6755 0.2712
vn 0.2441 -0.9007 0.3595
vn -0.6857 -0.6096 0.3978
vn 0.3042 -0.8054 0.5087
vn -0.6857 -0.5202 0.5091
vn 0.3465 -0.6883 0.6373
vn -0.6857 -0.4109 0.6008
vn 0.3761 -0.5527 0.7436
vn -0.6857 -0.2858 0.6694
vn 0.3961 -0.4015 0.8258
vn -0.6857 -0.1497 0.7123
vn 0.4083 -0.2377 0.8814
vn -0.6857 -0.0079 0.7278
vn 0.4133 -0.0651 0.9083
vn -0.6857 0.1343 0.7154
vn 0.4108 0.1120 0.9048
vn -0.6857 0.2712 0.6755
vn 0.3998 0.2888 0.8699
vn -0.6857 0.3978 0.6096
vn 0.3783 0.4602 0.8032
vn -0.6857 0.5091 0.5202
vn 0.3436 0.6204 0.7051
vn -0.6857 0.6008 0.4109
vn 0.2921 0.7629 0.5768
vn -0.6857 0.6694 0.2858
vn 0.2211 0.8798 0.4208
vn -0.6857 0.7123 0.1497
vn 0.1305 0.9615 0.2420
vn -0.6857 0.7278 0.0079
vn 0.0265 0.9984 0.0492
vn -0.6857 0.7154 -0.1343
vn -0.0788 0.9863 -0.1447
vn -0.6857 0.6755 -0.2712
vn -0.1735 0.9290 -0.3269
vn -0.6857 0.6096 -0.3978
vn -0.2515 0.8353 -0.4889
vn -0.6857 0.5202 -0.5091
vn -0.3125 0.7141 -0.6264
vn -0.6857 0.4109 -0.6008
vn -0.3589 0.5720 -0.7376
vn -0.6857 0.2858 -0.6694
vn -0.3933 0.4141 -0.8209
vn -0.6857 0.1497 -0.7123
vn -0.4174 0.2444 -0.8752
vn -0.5264 -0.0830 -0.8462
vn -0.4826 0.0746 -0.8727
vn -0.5582 -0.2364 -0.7953
vn -0.5751 -0.3848 -0.7219
vn -0.5729 -0.5279 -0.6270
vn -0.5451 -0.6652 -0.5102
vn -0.4835 -0.7937 -0.3691
vn -0.3809 -0.9026 -0.2007
vn -0.2407 -0.9706 -0.0076
vn -0.0843 -0.9773 0.1945
vn 0.0623 -0.9217 0.3828
vn 0.1860 -0.8199 0.5414
vn 0.2860 -0.6896 0.6653
vn 0.3662 -0.5430 0.7557
vn 0.4303 -0.3873 0.8154
vn 0.4806 -0.2266 0.8472
vn 0.5185 -0.0631 0.8527
vn 0.5439 0.1014 0.8330
vn 0.5554 0.2653 0.7881
vn 0.5503 0.4269 0.7175
vn 0.5250 0.5833 0.6198
vn 0.4750 0.7287 0.4933
vn 0.3983 0.8529 0.3374
vn 0.2983 0.9416 0.1562
vn 0.1856 0.9819 -0.0391
vn 0.0721 0.9698 -0.2332
vn -0.0343 0.9105 -0.4121
vn -0.1309 0.8138 -0.5663
vn -0.2179 0.6896 -0.6906
vn -0.2963 0.5471 -0.7829
vn -0.3666 0.3934 -0.8431
vn -0.4289 0.2344 -0.8724
vn 0.4508 -0.5786 -0.6797
vn 0.5337 -0.4451 -0.7191
vn 0.3757 -0.6984 -0.6092
vn 0.3124 -0.7996 -0.5129
vn 0.2633 -0.8792 -0.3971
vn 0.2301 -0.9355 -0.2681
vn 0.2133 -0.9680 -0.1320
vn 0.2126 -0.9771 0.0053
vn 0.2265 -0.9641 0.1388
vn 0.2531 -0.9307 0.2641
vn 0.2899 -0.8794 0.3776
vn 0.3343 -0.8129 0.4769
vn 0.3840 -0.7337 0.5606
vn 0.4373 -0.6440 0.6277
vn 0.4930 -0.5460 0.6774
vn 0.5502 -0.4413 0.7089
vn 0.6084 -0.3321 0.7208
vn 0.6667 -0.2208 0.7118
vn 0.7243 -0.1105 0.6806
vn 0.7796 -0.0050 0.6262
vn 0.8310 0.0914 0.5487
vn 0.8763 0.1742 0.4491
vn 0.9133 0.2391 0.3296
vn 0.9397 0.2819 0.1939
vn 0.9530 0.2993 0.0465
vn 0.9515 0.2887 -0.1063
vn 0.9336 0.2490 -0.2577
vn 0.8987 0.1806 -0.3996
vn 0.8474 0.0859 -0.5240
vn 0.7814 -0.0309 -0.6233
vn 0.7041 -0.1634 -0.6911
vn 0.6198 -0.3041 -0.7234
vt 1.000000 0.500000
vt 1.000000 1.000000
vt 0.968750 1.000000
vt 0.968750 0.500000
vt 0.937500 1.000000
vt 0.937500 0.500000
vt 0.906250 1.000000
vt 0.906250 0.500000
vt 0.875000 1.000000
vt 0.875000 0.500000
vt 0.843750 1.000000
vt 0.843750 0.500000
vt 0.812500 1.000000
vt 0.812500 0.500000
vt 0.781250 1.000000
vt 0.781250 0.500000
vt 0.750000 1.000000
vt 0.750000 0.500000
vt 0.718750 1.000000
vt 0.718750 0.500000
vt 0.687500 1.000000
vt 0.687500 0.500000
vt 0.656250 1.000000
vt 0.656250 0.500000
vt 0.625000 1.000000
vt 0.625000 0.500000
vt 0.593750 1.000000
vt 0.593750 0.500000
vt 0.562500 1.000000
vt 0.562500 0.500000
vt 0.531250 1.000000
vt 0.531250 0.500000
vt 0.500000 1.000000
vt 0.500000 0.500000
vt 0.468750 1.000000
vt 0.468750 0.500000
vt 0.437500 1.000000
vt 0.437500 0.500000
vt 0.406250 1.000000
vt 0.406250 0.500000
vt 0.375000 1.000000
vt 0.375000 0.500000
vt 0.343750 1.000000
vt 0.343750 0.500000
vt 0.312500 1.000000
vt 0.312500 0.500000
vt 0.281250 1.000000
vt 0.281250 0.500000
vt 0.250000 1.000000
vt 0.250000 0.500000
vt 0.218750 1.000000
vt 0.218750 0.500000
vt 0.187500 1.000000
vt 0.187500 0.500000
vt 0.156250 1.000000
vt 0.156250 0.500000
vt 0.125000 1.000000
vt 0.125000 0.500000
vt 0.093750 1.000000
vt 0.093750 0.500000
vt 0.062500 1.000000
vt 0.062500 0.500000
vt 0.031250 1.000000
vt 0.031250 0.500000
vt 0.000000 1.000000
vt 0.000000 0.500000
vt 0.750000 0.490000
vt 0.796822 0.485388
vt 0.841844 0.471731
vt 0.883337 0.449553
vt 0.919706 0.419706
vt 0.949553 0.383337
vt 0.971731 0.341844
vt 0.985388 0.296822
vt 0.990000 0.250000
vt 0.985388 0.203178
vt 0.971731 0.158156
vt 0.949553 0.116663
vt 0.919706 0.080294
vt 0.883337 0.050447
vt 0.841844 0.028269
vt 0.796822 0.014612
vt 0.750000 0.010000
vt 0.703178 0.014612
vt 0.658156 0.028269
vt 0.616663 0.050447
vt 0.580294 0.080294
vt 0.550447 0.116663
vt 0.528269 0.158156
vt 0.514612 0.203178
vt 0.510000 0.250000
vt 0.514612 0.296822
vt 0.528269 0.341844
vt 0.550447 0.383337
vt 0.580294 0.419706
vt 0.616663 0.449553
vt 0.658156 0.471731
vt 0.703178 0.485388
vt 0.296822 0.485388
vt 0.250000 0.490000
vt 0.203178 0.485388
vt 0.158156 0.471731
vt 0.116663 0.449553
vt 0.080294 0.419706
vt 0.050447 0.383337
vt 0.028269 0.341844
vt 0.014612 0.296822
vt 0.010000 0.250000
vt 0.014612 0.203178
vt 0.028269 0.158156
vt 0.050447 0.116663
vt 0.080294 0.080294
vt 0.116663 0.050447
vt 0.158156 0.028269
vt 0.203178 0.014612
vt 0.250000 0.010000
vt 0.296822 0.014612
vt 0.341844 0.028269
vt 0.383337 0.050447
vt 0.419706 0.080294
vt 0.449553 0.116663
vt 0.471731 0.158156
vt 0.485388 0.203178
vt 0.490000 0.250000
vt 0.485388 0.296822
vt 0.471731 0.341844
vt 0.449553 0.383337
vt 0.419706 0.419706
vt 0.383337 0.449553
vt 0.341844 0.471731
s 1
f 1/1/1 2/2/2 4/3/4 3/4/3
f 3/4/3 4/3/4 6/5/6 5/6/5
f 5/6/5 6/5/6 8/7/8 7/8/7
f 7/8/7 8/7/8 10/9/10 9/10/9
f 9/10/9 10/9/10 12/11/12 11/12/11
f 11/12/11 12/11/12 14/13/14 13/14/13
f 13/14/13 14/13/14 16/15/16 15/16/15
f 15/16/15 16/15/16 18/17/18 17/18/17
f 17/18/17 18/17/18 20/19/20 19/20/19
f 19/20/19 20/19/20 22/21/22 21/22/21
f 21/22/21 22/21/22 24/23/24 23/24/23
f 23/24/23 24/23/24 26/25/26 25/26/25
f 25/26/25 26/25/26 28/27/28 27/28/27
f 27/28/27 28/27/28 30/29/30 29/30/29
f 29/30/29 30/29/30 32/31/32 31/32/31
f 31/32/31 32/31/32 34/33/34 33/34/33
f 33/34/33 34/33/34 36/35/36 35/36/35
f 35/36/35 36/35/36 38/37/38 37/38/37
f 37/38/37 38/37/38 40/39/40 39/40/39
f 39/40/39 40/39/40 42/41/42 41/42/41
f 41/42/41 42/41/42 44/43/44 43/44/43
f 43/44/43 44/43/44 46/45/46 45/46/45
f 45/46/45 46/45/46 48/47/48 47/48/47
f 47/48/47 48/47/48 50/49/50 49/50/49
f 49/50/49 50/49/50 52/51/52 51/52/51
f 51/52/51 52/51/52 54/53/54 53/54/53
f 53/54/53 54/53/54 56/55/56 55/56/55
f 55/56/55 56/55/56 58/57/58 57/58/57
f 57/58/57 58/57/58 60/59/60 59/60/59
f 59/60/59 60/59/60 62/61/62 61/62/61
f 16/15/16 14/13/14 71/13/71 72/15/72
f 61/62/61 62/61/62 64/63/64 63/64/63
f 63/64/63 64/63/64 2/65/2 1/66/1
f 1/67/1 3/68/3 5/69/5 7/70/7 9/71/9 11/72/11 13/73/13 15/74/15 17/75/17 19/76/19 21/77/21 23/78/23 25/79/25 27/80/27 29/81/29 31/82/31 33/83/33 35/84/35 37/85/37 39/86/39 41/87/41 43/88/43 45/89/45 47/90/47 49/91/49 51/92/51 53/93/53 55/94/55 57/95/57 59/96/59 61/97/61 63/98/63
f 66/65/66 96/63/96 128/63/128 98/65/98
f 34/33/34 32/31/32 80/31/80 81/33/81
f 52/51/52 50/49/50 89/49/89 90/51/90
f 8/7/8 6/5/6 67/5/67 68/7/68
f 26/25/26 24/23/24 76/23/76 77/25/77
f 44/43/44 42/41/42 85/41/85 86/43/86
f 62/61/62 60/59/60 94/59/94 95/61/95
f 18/17/18 16/15/16 72/15/72 73/17/73
f 36/35/36 34/33/34 81/33/81 82/35/82
f 54/53/54 52/51/52 90/51/90 91/53/91
f 10/9/10 8/7/8 68/7/68 69/9/69
f 28/27/28 26/25/26 77/25/77 78/27/78
f 46/45/46 44/43/44 86/43/86 87/45/87
f 64/63/64 62/61/62 95/61/95 96/63/96
f 20/19/20 18/17/18 73/17/73 74/19/74
f 38/37/38 36/35/36 82/35/82 83/37/83
f 56/55/56 54/53/54 91/53/91 92/55/92
f 12/11/12 10/9/10 69/9/69 70/11/70
f 30/29/30 28/27/28 78/27/78 79/29/79
f 48/47/48 46/45/46 87/45/87 88/47/88
f 4/3/4 2/2/2 66/2/66 65/3/65
f 2/65/2 64/63/64 96/63/96 66/65/66
f 22/21/22 20/19/20 74/19/74 75/21/75
f 40/39/40 38/37/38 83/37/83 84/39/84
f 58/57/58 56/55/56 92/55/92 93/57/93
f 14/13/14 12/11/12 70/11/70 71/13/71
f 32/31/32 30/29/30 79/29/79 80/31/80
f 50/49/50 48/47/48 88/47/88 89/49/89
f 6/5/6 4/3/4 65/3/65 67/5/67
f 24/23/24 22/21/22 75/21/75 76/23/76
f 42/41/42 40/39/40 84/39/84 85/41/85
f 60/59/60 58/57/58 93/57/93 94/59/94
f 97/99/97 98/100/98 128/101/128 127/102/127 126/103/126 125/104/125 124/105/124 123/106/123 122/107/122 121/108/121 120/109/120 119/110/119 118/111/118 117/112/117 116/113/116 115/114/115 114/115/114 113/116/113 112/117/112 111/118/111 110/119/110 109/120/109 108/121/108 107/122/107 106/123/106 105/124/105 104/125/104 103/126/103 102/127/102 101/128/101 100/129/100 99/130/99
f 84/39/84 83/37/83 115/37/115 116/39/116
f 71/13/71 70/11/70 102/11/102 103/13/103
f 85/41/85 84/39/84 116/39/116 117/41/117
f 72/15/72 71/13/71 103/13/103 104/15/104
f 86/43/86 85/41/85 117/41/117 118/43/118
f 73/17/73 72/15/72 104/15/104 105/17/105
f 87/45/87 86/43/86 118/43/118 119/45/119
f 74/19/74 73/17/73 105/17/105 106/19/106
f 88/47/88 87/45/87 119/45/119 120/47/120
f 75/21/75 74/19/74 106/19/106 107/21/107
f 89/49/89 88/47/88 120/47/120 121/49/121
f 76/23/76 75/21/75 107/21/107 108/23/108
f 90/51/90 89/49/89 121/49/121 122/51/122
f 77/25/77 76/23/76 108/23/108 109/25/109
f 91/53/91 90/51/90 122/51/122 123/53/123
f 78/27/78 77/25/77 109/25/109 110/27/110
f 92/55/92 91/53/91 123/53/123 124/55/124
f 79/29/79 78/27/78 110/27/110 111/29/111
f 65/3/65 66/2/66 98/2/98 97/3/97
f 93/57/93 92/55/92 124/55/124 125/57/125
f 80/31/80 79/29/79 111/29/111 112/31/112
f 67/5/67 65/3/65 97/3/97 99/5/99
f 94/59/94 93/57/93 125/57/125 126/59/126
f 81/33/81 80/31/80 112/31/112 113/33/113
f 68/7/68 67/5/67 99/5/99 100/7/100
f 95/61/95 94/59/94 126/59/126 127/61/127
f 82/35/82 81/33/81 113/33/113 114/35/114
f 69/9/69 68/7/68 100/7/100 101/9/101
f 96/63/96 95/61/95 127/61/127 128/63/128
f 83/37/83 82/35/82 114/35/114 115/37/115
f 70/11/70 69/9/69 101/9/101 102/11/102
